<svg fill="#000000" xmlns="http://www.w3.org/2000/svg"  viewBox="0 0 48 48" width="48px" height="48px"><path d="M23.68,13.8c-0.11-0.29-0.3-0.43-0.58-0.43c-0.26,0-0.45,0.14-0.55,0.43c-0.11,0.29-0.17,0.74-0.17,1.36v2.7 c0,0.65,0.05,1.11,0.16,1.39c0.1,0.28,0.29,0.42,0.57,0.42c0.27,0,0.46-0.14,0.57-0.42c0.11-0.28,0.16-0.75,0.16-1.39v-2.7 C23.84,14.54,23.79,14.09,23.68,13.8z M23.68,13.8c-0.11-0.29-0.3-0.43-0.58-0.43c-0.26,0-0.45,0.14-0.55,0.43 c-0.11,0.29-0.17,0.74-0.17,1.36v2.7c0,0.65,0.05,1.11,0.16,1.39c0.1,0.28,0.29,0.42,0.57,0.42c0.27,0,0.46-0.14,0.57-0.42 c0.11-0.28,0.16-0.75,0.16-1.39v-2.7C23.84,14.54,23.79,14.09,23.68,13.8z M14.23,25.87v1.32h1.63v8.69h1.61v-8.69h1.64v-1.32 H14.23z M21.44,28.57v5.81c-0.07,0.13-0.17,0.24-0.3,0.33c-0.13,0.09-0.27,0.13-0.41,0.13c-0.17,0-0.29-0.07-0.36-0.21 c-0.07-0.14-0.1-0.37-0.1-0.69v-5.37h-1.65v5.46c0,0.68,0.11,1.17,0.34,1.49c0.23,0.32,0.59,0.48,1.08,0.48 c0.7,0,1.22-0.34,1.57-1.02h0.04l0.14,0.9h1.29v-7.31H21.44z M23.68,13.8c-0.11-0.29-0.3-0.43-0.58-0.43 c-0.26,0-0.45,0.14-0.55,0.43c-0.11,0.29-0.17,0.74-0.17,1.36v2.7c0,0.65,0.05,1.11,0.16,1.39c0.1,0.28,0.29,0.42,0.57,0.42 c0.27,0,0.46-0.14,0.57-0.42c0.11-0.28,0.16-0.75,0.16-1.39v-2.7C23.84,14.54,23.79,14.09,23.68,13.8z M28.53,29.74 c-0.1-0.46-0.26-0.8-0.48-1.01c-0.22-0.2-0.53-0.31-0.92-0.31c-0.31,0-0.59,0.09-0.85,0.26c-0.26,0.17-0.46,0.39-0.61,0.67h-0.01 V25.5h-1.59v10.38h1.36l0.17-0.69h0.04c0.13,0.25,0.31,0.44,0.57,0.58c0.26,0.15,0.54,0.22,0.85,0.22c0.55,0,0.96-0.26,1.23-0.77 c0.26-0.51,0.39-1.32,0.39-2.41v-1.15C28.68,30.84,28.63,30.2,28.53,29.74z M27.02,32.72c0,0.53-0.02,0.95-0.07,1.25 c-0.04,0.31-0.11,0.52-0.22,0.65c-0.1,0.12-0.24,0.19-0.41,0.19c-0.14,0-0.26-0.04-0.38-0.1c-0.11-0.06-0.21-0.16-0.28-0.29v-4.15 c0.06-0.2,0.15-0.36,0.29-0.49c0.13-0.13,0.28-0.19,0.44-0.19c0.17,0,0.29,0.07,0.39,0.2c0.09,0.13,0.15,0.35,0.19,0.66 c0.03,0.31,0.05,0.75,0.05,1.33V32.72z M33.77,32.77v-1.25c0-0.77-0.06-1.38-0.19-1.82c-0.12-0.43-0.33-0.76-0.63-0.96 c-0.31-0.21-0.74-0.31-1.31-0.31c-0.81,0-1.39,0.25-1.73,0.76c-0.34,0.5-0.51,1.3-0.51,2.4v1.28c0,1.06,0.17,1.85,0.49,2.36 c0.33,0.51,0.9,0.76,1.71,0.76c0.68,0,1.2-0.16,1.57-0.5c0.37-0.33,0.55-0.84,0.55-1.51c0-0.12,0-0.2-0.01-0.27l-1.42-0.08 c0,0.44-0.06,0.76-0.15,0.95c-0.09,0.19-0.26,0.29-0.5,0.29c-0.18,0-0.32-0.05-0.41-0.16c-0.09-0.11-0.14-0.28-0.17-0.51 c-0.03-0.24-0.04-0.59-0.04-1.06v-0.37H33.77z M31.01,31.79v-0.52c0-0.48,0.02-0.83,0.05-1.07c0.02-0.23,0.08-0.4,0.16-0.5 c0.09-0.11,0.22-0.16,0.39-0.16c0.18,0,0.3,0.05,0.39,0.15c0.08,0.1,0.14,0.27,0.17,0.51c0.03,0.24,0.05,0.6,0.05,1.07v0.52H31.01z M33.77,32.77v-1.25c0-0.77-0.06-1.38-0.19-1.82c-0.12-0.43-0.33-0.76-0.63-0.96c-0.31-0.21-0.74-0.31-1.31-0.31 c-0.81,0-1.39,0.25-1.73,0.76c-0.34,0.5-0.51,1.3-0.51,2.4v1.28c0,1.06,0.17,1.85,0.49,2.36c0.33,0.51,0.9,0.76,1.71,0.76 c0.68,0,1.2-0.16,1.57-0.5c0.37-0.33,0.55-0.84,0.55-1.51c0-0.12,0-0.2-0.01-0.27l-1.42-0.08c0,0.44-0.06,0.76-0.15,0.95 c-0.09,0.19-0.26,0.29-0.5,0.29c-0.18,0-0.32-0.05-0.41-0.16c-0.09-0.11-0.14-0.28-0.17-0.51c-0.03-0.24-0.04-0.59-0.04-1.06v-0.37 H33.77z M31.01,31.79v-0.52c0-0.48,0.02-0.83,0.05-1.07c0.02-0.23,0.08-0.4,0.16-0.5c0.09-0.11,0.22-0.16,0.39-0.16 c0.18,0,0.3,0.05,0.39,0.15c0.08,0.1,0.14,0.27,0.17,0.51c0.03,0.24,0.05,0.6,0.05,1.07v0.52H31.01z M28.05,28.73 c-0.22-0.2-0.53-0.31-0.92-0.31c-0.31,0-0.59,0.09-0.85,0.26c-0.26,0.17-0.46,0.39-0.61,0.67h-0.01V25.5h-1.59v10.38h1.36 l0.17-0.69h0.04c0.13,0.25,0.31,0.44,0.57,0.58c0.26,0.15,0.54,0.22,0.85,0.22c0.55,0,0.96-0.26,1.23-0.77 c0.26-0.51,0.39-1.32,0.39-2.41v-1.15c0-0.82-0.05-1.46-0.15-1.92C28.43,29.28,28.27,28.94,28.05,28.73z M27.02,32.72 c0,0.53-0.02,0.95-0.07,1.25c-0.04,0.31-0.11,0.52-0.22,0.65c-0.1,0.12-0.24,0.19-0.41,0.19c-0.14,0-0.26-0.04-0.38-0.1 c-0.11-0.06-0.21-0.16-0.28-0.29v-4.15c0.06-0.2,0.15-0.36,0.29-0.49c0.13-0.13,0.28-0.19,0.44-0.19c0.17,0,0.29,0.07,0.39,0.2 c0.09,0.13,0.15,0.35,0.19,0.66c0.03,0.31,0.05,0.75,0.05,1.33V32.72z M21.44,34.38c-0.07,0.13-0.17,0.24-0.3,0.33 c-0.13,0.09-0.27,0.13-0.41,0.13c-0.17,0-0.29-0.07-0.36-0.21c-0.07-0.14-0.1-0.37-0.1-0.69v-5.37h-1.65v5.46 c0,0.68,0.11,1.17,0.34,1.49c0.23,0.32,0.59,0.48,1.08,0.48c0.7,0,1.22-0.34,1.57-1.02h0.04l0.14,0.9h1.29v-7.31h-1.64V34.38z M19.11,25.87h-4.88v1.32h1.63v8.69h1.61v-8.69h1.64V25.87z M23.68,13.8c-0.11-0.29-0.3-0.43-0.58-0.43 c-0.26,0-0.45,0.14-0.55,0.43c-0.11,0.29-0.17,0.74-0.17,1.36v2.7c0,0.65,0.05,1.11,0.16,1.39c0.1,0.28,0.29,0.42,0.57,0.42 c0.27,0,0.46-0.14,0.57-0.42c0.11-0.28,0.16-0.75,0.16-1.39v-2.7C23.84,14.54,23.79,14.09,23.68,13.8z M36.5,6h-25 C8.47,6,6,8.47,6,11.5v25c0,3.03,2.47,5.5,5.5,5.5h25c3.03,0,5.5-2.47,5.5-5.5v-25C42,8.47,39.53,6,36.5,6z M26.82,12.2h1.95v6.36 c0,0.38,0.04,0.66,0.13,0.82c0.08,0.17,0.22,0.25,0.42,0.25c0.17,0,0.33-0.05,0.49-0.15c0.15-0.11,0.27-0.24,0.34-0.4V12.2h1.95 v8.66h-1.52l-0.17-1.06h-0.04c-0.42,0.8-1.04,1.2-1.87,1.2c-0.57,0-1-0.19-1.27-0.56c-0.28-0.38-0.41-0.97-0.41-1.77V12.2z M21.57,12.41c0.4-0.26,0.92-0.38,1.58-0.38c0.64,0,1.15,0.13,1.54,0.39c0.38,0.27,0.67,0.68,0.84,1.24 c0.18,0.56,0.27,1.31,0.27,2.24v1.26c0,0.92-0.09,1.66-0.26,2.22c-0.17,0.56-0.46,0.97-0.85,1.23S23.77,21,23.1,21 c-0.68,0-1.22-0.13-1.61-0.4c-0.4-0.26-0.67-0.67-0.84-1.23c-0.16-0.55-0.25-1.29-0.25-2.22V15.9c0-0.94,0.1-1.69,0.29-2.25 C20.87,13.09,21.17,12.67,21.57,12.41z M16.46,9l0.77,3.63c0.2,0.9,0.35,1.66,0.44,2.29h0.06c0.06-0.45,0.21-1.21,0.44-2.27 L18.97,9h1.94l-2.25,8.01v3.85h-1.92v-3.85L14.52,9H16.46z M37.95,36c0,1.65-1.35,3-3,3h-21.9c-1.65,0-3-1.35-3-3V25.75 c0-1.65,1.35-3,3-3h21.9c1.65,0,3,1.35,3,3V36z M32.95,28.74c-0.31-0.21-0.74-0.31-1.31-0.31c-0.81,0-1.39,0.25-1.73,0.76 c-0.34,0.5-0.51,1.3-0.51,2.4v1.28c0,1.06,0.17,1.85,0.49,2.36c0.33,0.51,0.9,0.76,1.71,0.76c0.68,0,1.2-0.16,1.57-0.5 c0.37-0.33,0.55-0.84,0.55-1.51c0-0.12,0-0.2-0.01-0.27l-1.42-0.08c0,0.44-0.06,0.76-0.15,0.95c-0.09,0.19-0.26,0.29-0.5,0.29 c-0.18,0-0.32-0.05-0.41-0.16c-0.09-0.11-0.14-0.28-0.17-0.51c-0.03-0.24-0.04-0.59-0.04-1.06v-0.37h2.75v-1.25 c0-0.77-0.06-1.38-0.19-1.82C33.46,29.27,33.25,28.94,32.95,28.74z M32.22,31.79h-1.21v-0.52c0-0.48,0.02-0.83,0.05-1.07 c0.02-0.23,0.08-0.4,0.16-0.5c0.09-0.11,0.22-0.16,0.39-0.16c0.18,0,0.3,0.05,0.39,0.15c0.08,0.1,0.14,0.27,0.17,0.51 c0.03,0.24,0.05,0.6,0.05,1.07V31.79z M28.05,28.73c-0.22-0.2-0.53-0.31-0.92-0.31c-0.31,0-0.59,0.09-0.85,0.26 c-0.26,0.17-0.46,0.39-0.61,0.67h-0.01V25.5h-1.59v10.38h1.36l0.17-0.69h0.04c0.13,0.25,0.31,0.44,0.57,0.58 c0.26,0.15,0.54,0.22,0.85,0.22c0.55,0,0.96-0.26,1.23-0.77c0.26-0.51,0.39-1.32,0.39-2.41v-1.15c0-0.82-0.05-1.46-0.15-1.92 C28.43,29.28,28.27,28.94,28.05,28.73z M27.02,32.72c0,0.53-0.02,0.95-0.07,1.25c-0.04,0.31-0.11,0.52-0.22,0.65 c-0.1,0.12-0.24,0.19-0.41,0.19c-0.14,0-0.26-0.04-0.38-0.1c-0.11-0.06-0.21-0.16-0.28-0.29v-4.15c0.06-0.2,0.15-0.36,0.29-0.49 c0.13-0.13,0.28-0.19,0.44-0.19c0.17,0,0.29,0.07,0.39,0.2c0.09,0.13,0.15,0.35,0.19,0.66c0.03,0.31,0.05,0.75,0.05,1.33V32.72z M23.11,19.67c0.27,0,0.46-0.14,0.57-0.42c0.11-0.28,0.16-0.75,0.16-1.39v-2.7c0-0.62-0.05-1.07-0.16-1.36s-0.3-0.43-0.58-0.43 c-0.26,0-0.45,0.14-0.55,0.43c-0.11,0.29-0.17,0.74-0.17,1.36v2.7c0,0.65,0.05,1.11,0.16,1.39C22.64,19.53,22.83,19.67,23.11,19.67 z M21.44,34.38c-0.07,0.13-0.17,0.24-0.3,0.33c-0.13,0.09-0.27,0.13-0.41,0.13c-0.17,0-0.29-0.07-0.36-0.21 c-0.07-0.14-0.1-0.37-0.1-0.69v-5.37h-1.65v5.46c0,0.68,0.11,1.17,0.34,1.49c0.23,0.32,0.59,0.48,1.08,0.48 c0.7,0,1.22-0.34,1.57-1.02h0.04l0.14,0.9h1.29v-7.31h-1.64V34.38z M19.11,25.87h-4.88v1.32h1.63v8.69h1.61v-8.69h1.64V25.87z M23.68,13.8c-0.11-0.29-0.3-0.43-0.58-0.43c-0.26,0-0.45,0.14-0.55,0.43c-0.11,0.29-0.17,0.74-0.17,1.36v2.7 c0,0.65,0.05,1.11,0.16,1.39c0.1,0.28,0.29,0.42,0.57,0.42c0.27,0,0.46-0.14,0.57-0.42c0.11-0.28,0.16-0.75,0.16-1.39v-2.7 C23.84,14.54,23.79,14.09,23.68,13.8z M14.23,25.87v1.32h1.63v8.69h1.61v-8.69h1.64v-1.32H14.23z M21.44,28.57v5.81 c-0.07,0.13-0.17,0.24-0.3,0.33c-0.13,0.09-0.27,0.13-0.41,0.13c-0.17,0-0.29-0.07-0.36-0.21c-0.07-0.14-0.1-0.37-0.1-0.69v-5.37 h-1.65v5.46c0,0.68,0.11,1.17,0.34,1.49c0.23,0.32,0.59,0.48,1.08,0.48c0.7,0,1.22-0.34,1.57-1.02h0.04l0.14,0.9h1.29v-7.31H21.44z M28.53,29.74c-0.1-0.46-0.26-0.8-0.48-1.01c-0.22-0.2-0.53-0.31-0.92-0.31c-0.31,0-0.59,0.09-0.85,0.26 c-0.26,0.17-0.46,0.39-0.61,0.67h-0.01V25.5h-1.59v10.38h1.36l0.17-0.69h0.04c0.13,0.25,0.31,0.44,0.57,0.58 c0.26,0.15,0.54,0.22,0.85,0.22c0.55,0,0.96-0.26,1.23-0.77c0.26-0.51,0.39-1.32,0.39-2.41v-1.15 C28.68,30.84,28.63,30.2,28.53,29.74z M27.02,32.72c0,0.53-0.02,0.95-0.07,1.25c-0.04,0.31-0.11,0.52-0.22,0.65 c-0.1,0.12-0.24,0.19-0.41,0.19c-0.14,0-0.26-0.04-0.38-0.1c-0.11-0.06-0.21-0.16-0.28-0.29v-4.15c0.06-0.2,0.15-0.36,0.29-0.49 c0.13-0.13,0.28-0.19,0.44-0.19c0.17,0,0.29,0.07,0.39,0.2c0.09,0.13,0.15,0.35,0.19,0.66c0.03,0.31,0.05,0.75,0.05,1.33V32.72z M33.77,32.77v-1.25c0-0.77-0.06-1.38-0.19-1.82c-0.12-0.43-0.33-0.76-0.63-0.96c-0.31-0.21-0.74-0.31-1.31-0.31 c-0.81,0-1.39,0.25-1.73,0.76c-0.34,0.5-0.51,1.3-0.51,2.4v1.28c0,1.06,0.17,1.85,0.49,2.36c0.33,0.51,0.9,0.76,1.71,0.76 c0.68,0,1.2-0.16,1.57-0.5c0.37-0.33,0.55-0.84,0.55-1.51c0-0.12,0-0.2-0.01-0.27l-1.42-0.08c0,0.44-0.06,0.76-0.15,0.95 c-0.09,0.19-0.26,0.29-0.5,0.29c-0.18,0-0.32-0.05-0.41-0.16c-0.09-0.11-0.14-0.28-0.17-0.51c-0.03-0.24-0.04-0.59-0.04-1.06v-0.37 H33.77z M31.01,31.79v-0.52c0-0.48,0.02-0.83,0.05-1.07c0.02-0.23,0.08-0.4,0.16-0.5c0.09-0.11,0.22-0.16,0.39-0.16 c0.18,0,0.3,0.05,0.39,0.15c0.08,0.1,0.14,0.27,0.17,0.51c0.03,0.24,0.05,0.6,0.05,1.07v0.52H31.01z M33.77,32.77v-1.25 c0-0.77-0.06-1.38-0.19-1.82c-0.12-0.43-0.33-0.76-0.63-0.96c-0.31-0.21-0.74-0.31-1.31-0.31c-0.81,0-1.39,0.25-1.73,0.76 c-0.34,0.5-0.51,1.3-0.51,2.4v1.28c0,1.06,0.17,1.85,0.49,2.36c0.33,0.51,0.9,0.76,1.71,0.76c0.68,0,1.2-0.16,1.57-0.5 c0.37-0.33,0.55-0.84,0.55-1.51c0-0.12,0-0.2-0.01-0.27l-1.42-0.08c0,0.44-0.06,0.76-0.15,0.95c-0.09,0.19-0.26,0.29-0.5,0.29 c-0.18,0-0.32-0.05-0.41-0.16c-0.09-0.11-0.14-0.28-0.17-0.51c-0.03-0.24-0.04-0.59-0.04-1.06v-0.37H33.77z M31.01,31.79v-0.52 c0-0.48,0.02-0.83,0.05-1.07c0.02-0.23,0.08-0.4,0.16-0.5c0.09-0.11,0.22-0.16,0.39-0.16c0.18,0,0.3,0.05,0.39,0.15 c0.08,0.1,0.14,0.27,0.17,0.51c0.03,0.24,0.05,0.6,0.05,1.07v0.52H31.01z M28.53,29.74c-0.1-0.46-0.26-0.8-0.48-1.01 c-0.22-0.2-0.53-0.31-0.92-0.31c-0.31,0-0.59,0.09-0.85,0.26c-0.26,0.17-0.46,0.39-0.61,0.67h-0.01V25.5h-1.59v10.38h1.36 l0.17-0.69h0.04c0.13,0.25,0.31,0.44,0.57,0.58c0.26,0.15,0.54,0.22,0.85,0.22c0.55,0,0.96-0.26,1.23-0.77 c0.26-0.51,0.39-1.32,0.39-2.41v-1.15C28.68,30.84,28.63,30.2,28.53,29.74z M27.02,32.72c0,0.53-0.02,0.95-0.07,1.25 c-0.04,0.31-0.11,0.52-0.22,0.65c-0.1,0.12-0.24,0.19-0.41,0.19c-0.14,0-0.26-0.04-0.38-0.1c-0.11-0.06-0.21-0.16-0.28-0.29v-4.15 c0.06-0.2,0.15-0.36,0.29-0.49c0.13-0.13,0.28-0.19,0.44-0.19c0.17,0,0.29,0.07,0.39,0.2c0.09,0.13,0.15,0.35,0.19,0.66 c0.03,0.31,0.05,0.75,0.05,1.33V32.72z M23.68,13.8c-0.11-0.29-0.3-0.43-0.58-0.43c-0.26,0-0.45,0.14-0.55,0.43 c-0.11,0.29-0.17,0.74-0.17,1.36v2.7c0,0.65,0.05,1.11,0.16,1.39c0.1,0.28,0.29,0.42,0.57,0.42c0.27,0,0.46-0.14,0.57-0.42 c0.11-0.28,0.16-0.75,0.16-1.39v-2.7C23.84,14.54,23.79,14.09,23.68,13.8z M21.44,28.57v5.81c-0.07,0.13-0.17,0.24-0.3,0.33 c-0.13,0.09-0.27,0.13-0.41,0.13c-0.17,0-0.29-0.07-0.36-0.21c-0.07-0.14-0.1-0.37-0.1-0.69v-5.37h-1.65v5.46 c0,0.68,0.11,1.17,0.34,1.49c0.23,0.32,0.59,0.48,1.08,0.48c0.7,0,1.22-0.34,1.57-1.02h0.04l0.14,0.9h1.29v-7.31H21.44z M14.23,25.87v1.32h1.63v8.69h1.61v-8.69h1.64v-1.32H14.23z M23.68,13.8c-0.11-0.29-0.3-0.43-0.58-0.43 c-0.26,0-0.45,0.14-0.55,0.43c-0.11,0.29-0.17,0.74-0.17,1.36v2.7c0,0.65,0.05,1.11,0.16,1.39c0.1,0.28,0.29,0.42,0.57,0.42 c0.27,0,0.46-0.14,0.57-0.42c0.11-0.28,0.16-0.75,0.16-1.39v-2.7C23.84,14.54,23.79,14.09,23.68,13.8z M23.68,13.8 c-0.11-0.29-0.3-0.43-0.58-0.43c-0.26,0-0.45,0.14-0.55,0.43c-0.11,0.29-0.17,0.74-0.17,1.36v2.7c0,0.65,0.05,1.11,0.16,1.39 c0.1,0.28,0.29,0.42,0.57,0.42c0.27,0,0.46-0.14,0.57-0.42c0.11-0.28,0.16-0.75,0.16-1.39v-2.7C23.84,14.54,23.79,14.09,23.68,13.8 z M23.68,13.8c-0.11-0.29-0.3-0.43-0.58-0.43c-0.26,0-0.45,0.14-0.55,0.43c-0.11,0.29-0.17,0.74-0.17,1.36v2.7 c0,0.65,0.05,1.11,0.16,1.39c0.1,0.28,0.29,0.42,0.57,0.42c0.27,0,0.46-0.14,0.57-0.42c0.11-0.28,0.16-0.75,0.16-1.39v-2.7 C23.84,14.54,23.79,14.09,23.68,13.8z M23.68,13.8c-0.11-0.29-0.3-0.43-0.58-0.43c-0.26,0-0.45,0.14-0.55,0.43 c-0.11,0.29-0.17,0.74-0.17,1.36v2.7c0,0.65,0.05,1.11,0.16,1.39c0.1,0.28,0.29,0.42,0.57,0.42c0.27,0,0.46-0.14,0.57-0.42 c0.11-0.28,0.16-0.75,0.16-1.39v-2.7C23.84,14.54,23.79,14.09,23.68,13.8z M28.53,29.74c-0.1-0.46-0.26-0.8-0.48-1.01 c-0.22-0.2-0.53-0.31-0.92-0.31c-0.31,0-0.59,0.09-0.85,0.26c-0.26,0.17-0.46,0.39-0.61,0.67h-0.01V25.5h-1.59v10.38h1.36 l0.17-0.69h0.04c0.13,0.25,0.31,0.44,0.57,0.58c0.26,0.15,0.54,0.22,0.85,0.22c0.55,0,0.96-0.26,1.23-0.77 c0.26-0.51,0.39-1.32,0.39-2.41v-1.15C28.68,30.84,28.63,30.2,28.53,29.74z M27.02,32.72c0,0.53-0.02,0.95-0.07,1.25 c-0.04,0.31-0.11,0.52-0.22,0.65c-0.1,0.12-0.24,0.19-0.41,0.19c-0.14,0-0.26-0.04-0.38-0.1c-0.11-0.06-0.21-0.16-0.28-0.29v-4.15 c0.06-0.2,0.15-0.36,0.29-0.49c0.13-0.13,0.28-0.19,0.44-0.19c0.17,0,0.29,0.07,0.39,0.2c0.09,0.13,0.15,0.35,0.19,0.66 c0.03,0.31,0.05,0.75,0.05,1.33V32.72z M21.44,28.57v5.81c-0.07,0.13-0.17,0.24-0.3,0.33c-0.13,0.09-0.27,0.13-0.41,0.13 c-0.17,0-0.29-0.07-0.36-0.21c-0.07-0.14-0.1-0.37-0.1-0.69v-5.37h-1.65v5.46c0,0.68,0.11,1.17,0.34,1.49 c0.23,0.32,0.59,0.48,1.08,0.48c0.7,0,1.22-0.34,1.57-1.02h0.04l0.14,0.9h1.29v-7.31H21.44z M14.23,25.87v1.32h1.63v8.69h1.61 v-8.69h1.64v-1.32H14.23z M33.77,32.77v-1.25c0-0.77-0.06-1.38-0.19-1.82c-0.12-0.43-0.33-0.76-0.63-0.96 c-0.31-0.21-0.74-0.31-1.31-0.31c-0.81,0-1.39,0.25-1.73,0.76c-0.34,0.5-0.51,1.3-0.51,2.4v1.28c0,1.06,0.17,1.85,0.49,2.36 c0.33,0.51,0.9,0.76,1.71,0.76c0.68,0,1.2-0.16,1.57-0.5c0.37-0.33,0.55-0.84,0.55-1.51c0-0.12,0-0.2-0.01-0.27l-1.42-0.08 c0,0.44-0.06,0.76-0.15,0.95c-0.09,0.19-0.26,0.29-0.5,0.29c-0.18,0-0.32-0.05-0.41-0.16c-0.09-0.11-0.14-0.28-0.17-0.51 c-0.03-0.24-0.04-0.59-0.04-1.06v-0.37H33.77z M31.01,31.79v-0.52c0-0.48,0.02-0.83,0.05-1.07c0.02-0.23,0.08-0.4,0.16-0.5 c0.09-0.11,0.22-0.16,0.39-0.16c0.18,0,0.3,0.05,0.39,0.15c0.08,0.1,0.14,0.27,0.17,0.51c0.03,0.24,0.05,0.6,0.05,1.07v0.52H31.01z M28.53,29.74c-0.1-0.46-0.26-0.8-0.48-1.01c-0.22-0.2-0.53-0.31-0.92-0.31c-0.31,0-0.59,0.09-0.85,0.26 c-0.26,0.17-0.46,0.39-0.61,0.67h-0.01V25.5h-1.59v10.38h1.36l0.17-0.69h0.04c0.13,0.25,0.31,0.44,0.57,0.58 c0.26,0.15,0.54,0.22,0.85,0.22c0.55,0,0.96-0.26,1.23-0.77c0.26-0.51,0.39-1.32,0.39-2.41v-1.15 C28.68,30.84,28.63,30.2,28.53,29.74z M27.02,32.72c0,0.53-0.02,0.95-0.07,1.25c-0.04,0.31-0.11,0.52-0.22,0.65 c-0.1,0.12-0.24,0.19-0.41,0.19c-0.14,0-0.26-0.04-0.38-0.1c-0.11-0.06-0.21-0.16-0.28-0.29v-4.15c0.06-0.2,0.15-0.36,0.29-0.49 c0.13-0.13,0.28-0.19,0.44-0.19c0.17,0,0.29,0.07,0.39,0.2c0.09,0.13,0.15,0.35,0.19,0.66c0.03,0.31,0.05,0.75,0.05,1.33V32.72z M21.44,28.57v5.81c-0.07,0.13-0.17,0.24-0.3,0.33c-0.13,0.09-0.27,0.13-0.41,0.13c-0.17,0-0.29-0.07-0.36-0.21 c-0.07-0.14-0.1-0.37-0.1-0.69v-5.37h-1.65v5.46c0,0.68,0.11,1.17,0.34,1.49c0.23,0.32,0.59,0.48,1.08,0.48 c0.7,0,1.22-0.34,1.57-1.02h0.04l0.14,0.9h1.29v-7.31H21.44z M14.23,25.87v1.32h1.63v8.69h1.61v-8.69h1.64v-1.32H14.23z M33.77,32.77v-1.25c0-0.77-0.06-1.38-0.19-1.82c-0.12-0.43-0.33-0.76-0.63-0.96c-0.31-0.21-0.74-0.31-1.31-0.31 c-0.81,0-1.39,0.25-1.73,0.76c-0.34,0.5-0.51,1.3-0.51,2.4v1.28c0,1.06,0.17,1.85,0.49,2.36c0.33,0.51,0.9,0.76,1.71,0.76 c0.68,0,1.2-0.16,1.57-0.5c0.37-0.33,0.55-0.84,0.55-1.51c0-0.12,0-0.2-0.01-0.27l-1.42-0.08c0,0.44-0.06,0.76-0.15,0.95 c-0.09,0.19-0.26,0.29-0.5,0.29c-0.18,0-0.32-0.05-0.41-0.16c-0.09-0.11-0.14-0.28-0.17-0.51c-0.03-0.24-0.04-0.59-0.04-1.06v-0.37 H33.77z M31.01,31.79v-0.52c0-0.48,0.02-0.83,0.05-1.07c0.02-0.23,0.08-0.4,0.16-0.5c0.09-0.11,0.22-0.16,0.39-0.16 c0.18,0,0.3,0.05,0.39,0.15c0.08,0.1,0.14,0.27,0.17,0.51c0.03,0.24,0.05,0.6,0.05,1.07v0.52H31.01z"/></svg>